solid hnX.stl
facet normal  223.70515369169027 223.7051536916901 47.54999829656953
  outer loop
    vertex  3.061616997868383e-16 110.0 0.0
    vertex  3.061616997868383e-16 100.4900003406861 44.74103073833802
    vertex  5.0 95.92227305247309 42.70734752295902
  endloop
endfacet
facet normal  223.70515369168993 185.02450032087668 134.42816820605842
  outer loop
    vertex  3.061616997868383e-16 100.4900003406861 44.74103073833802
    vertex  3.061616997868383e-16 73.60436669947441 81.74593080251336
    vertex  5.0 70.25871366768013 78.03020667512638
  endloop
endfacet
facet normal  223.70515369169016 114.35142994976765 198.06248659115096
  outer loop
    vertex  3.061616997868383e-16 73.60436669947441 81.74593080251336
    vertex  3.061616997868383e-16 33.99186938124422 104.61621679246689
    vertex  5.0 32.446784409369485 99.86093421099112
  endloop
endfacet
facet normal  223.7051536916902 23.905958490215937 227.45000170343044
  outer loop
    vertex  3.061616997868383e-16 33.99186938124422 104.61621679246689
    vertex  3.061616997868383e-16 -11.498130959441866 109.39740849051007
    vertex  5.0 -10.9754886431036 104.4247990136687
  endloop
endfacet
facet normal  223.70515369169027 -70.673070371109 217.50934520279057
  outer loop
    vertex  3.061616997868383e-16 -11.498130959441866 109.39740849051007
    vertex  3.061616997868383e-16 -54.99999999999998 95.26279441628827
    vertex  5.0 -52.49999999999998 90.93266739736607
  endloop
endfacet
facet normal  223.7051536916905 -153.03208332058105 169.95934690622119
  outer loop
    vertex  3.061616997868383e-16 -54.99999999999998 95.26279441628827
    vertex  3.061616997868383e-16 -88.99186938124421 64.65637775217206
    vertex  5.0 -84.94678440936947 61.71745149070969
  endloop
endfacet
facet normal  223.70515369169004 -208.93045881109245 93.02183349737199
  outer loop
    vertex  3.061616997868383e-16 -88.99186938124421 64.65637775217206
    vertex  3.061616997868383e-16 -107.59623608071861 22.87028598995357
    vertex  5.0 -102.70549807704958 21.83072753586477
  endloop
endfacet
facet normal  223.70515369169016 -228.70285989953533 7.105427357601002e-14
  outer loop
    vertex  3.061616997868383e-16 -107.59623608071861 22.87028598995357
    vertex  3.061616997868383e-16 -107.59623608071863 -22.870285989953498
    vertex  5.0 -102.7054980770496 -21.830727535864703
  endloop
endfacet
facet normal  223.7051536916897 -208.93045881109265 -93.02183349737206
  outer loop
    vertex  3.061616997868383e-16 -107.59623608071863 -22.870285989953498
    vertex  3.061616997868383e-16 -88.99186938124421 -64.65637775217203
    vertex  5.0 -84.94678440936949 -61.71745149070967
  endloop
endfacet
facet normal  223.70515369168947 -153.0320833205809 -169.95934690622082
  outer loop
    vertex  3.061616997868383e-16 -88.99186938124421 -64.65637775217203
    vertex  3.061616997868383e-16 -55.00000000000005 -95.26279441628822
    vertex  5.0 -52.50000000000005 -90.93266739736603
  endloop
endfacet
facet normal  223.70515369169016 -70.67307037110922 -217.50934520279043
  outer loop
    vertex  3.061616997868383e-16 -55.00000000000005 -95.26279441628822
    vertex  3.061616997868383e-16 -11.498130959441966 -109.39740849051006
    vertex  5.0 -10.975488643103695 -104.42479901366869
  endloop
endfacet
facet normal  223.7051536916904 23.905958490215795 -227.4500017034308
  outer loop
    vertex  3.061616997868383e-16 -11.498130959441966 -109.39740849051006
    vertex  3.061616997868383e-16 33.99186938124419 -104.6162167924669
    vertex  5.0 32.44678440936946 -99.86093421099113
  endloop
endfacet
facet normal  223.70515369168993 114.35142994976744 -198.06248659115082
  outer loop
    vertex  3.061616997868383e-16 33.99186938124419 -104.6162167924669
    vertex  3.061616997868383e-16 73.60436669947435 -81.74593080251341
    vertex  5.0 70.25871366768007 -78.03020667512644
  endloop
endfacet
facet normal  223.7051536916897 185.02450032087654 -134.4281682060585
  outer loop
    vertex  3.061616997868383e-16 73.60436669947435 -81.74593080251341
    vertex  3.061616997868383e-16 100.49000034068605 -44.741030738338104
    vertex  5.0 95.92227305247306 -42.7073475229591
  endloop
endfacet
facet normal  223.7051536916905 223.70515369169053 -47.54999829656974
  outer loop
    vertex  3.061616997868383e-16 100.49000034068605 -44.741030738338104
    vertex  3.061616997868383e-16 110.0 0.0
    vertex  5.0 105.0 0.0
  endloop
endfacet
facet normal  213.5367376147951 213.5367376147951 45.38863473763456
  outer loop
    vertex  3.061616997868383e-16 110.0 0.0
    vertex  5.0 95.92227305247309 42.70734752295902
    vertex  5.0 105.0 0.0
  endloop
endfacet
facet normal  213.53673761479507 176.6142957608368 128.3177969239648
  outer loop
    vertex  3.061616997868383e-16 100.4900003406861 44.74103073833802
    vertex  5.0 70.25871366768013 78.03020667512638
    vertex  5.0 95.92227305247309 42.70734752295902
  endloop
endfacet
facet normal  213.53673761479527 109.1536376793237 189.0596462915532
  outer loop
    vertex  3.061616997868383e-16 73.60436669947441 81.74593080251336
    vertex  5.0 32.446784409369485 99.86093421099112
    vertex  5.0 70.25871366768013 78.03020667512638
  endloop
endfacet
facet normal  213.53673761479507 22.819324013387927 217.1113652623654
  outer loop
    vertex  3.061616997868383e-16 33.99186938124422 104.61621679246689
    vertex  5.0 -10.9754886431036 104.4247990136687
    vertex  5.0 32.446784409369485 99.86093421099112
  endloop
endfacet
facet normal  213.53673761479521 -67.46065808151315 207.6225567844819
  outer loop
    vertex  3.061616997868383e-16 -11.498130959441866 109.39740849051007
    vertex  5.0 -52.49999999999998 90.93266739736607
    vertex  5.0 -10.9754886431036 104.4247990136687
  endloop
endfacet
facet normal  213.53673761479536 -146.07607953328193 162.23392204684745
  outer loop
    vertex  3.061616997868383e-16 -54.99999999999998 95.26279441628827
    vertex  5.0 -84.94678440936947 61.71745149070969
    vertex  5.0 -52.49999999999998 90.93266739736607
  endloop
endfacet
facet normal  213.53673761479536 -199.4336197742246 88.79356833840056
  outer loop
    vertex  3.061616997868383e-16 -88.99186938124421 64.65637775217206
    vertex  5.0 -102.70549807704958 21.83072753586477
    vertex  5.0 -84.94678440936947 61.71745149070969
  endloop
endfacet
facet normal  213.5367376147952 -218.30727535864736 7.105427357601002e-14
  outer loop
    vertex  3.061616997868383e-16 -107.59623608071861 22.87028598995357
    vertex  5.0 -102.7054980770496 -21.830727535864703
    vertex  5.0 -102.70549807704958 21.83072753586477
  endloop
endfacet
facet normal  213.5367376147952 -199.43361977422487 -88.79356833840056
  outer loop
    vertex  3.061616997868383e-16 -107.59623608071863 -22.870285989953498
    vertex  5.0 -84.94678440936949 -61.71745149070967
    vertex  5.0 -102.7054980770496 -21.830727535864703
  endloop
endfacet
facet normal  213.53673761479462 -146.0760795332818 -162.23392204684717
  outer loop
    vertex  3.061616997868383e-16 -88.99186938124421 -64.65637775217203
    vertex  5.0 -52.50000000000005 -90.93266739736603
    vertex  5.0 -84.94678440936949 -61.71745149070967
  endloop
endfacet
facet normal  213.53673761479462 -67.46065808151329 -207.6225567844818
  outer loop
    vertex  3.061616997868383e-16 -55.00000000000005 -95.26279441628822
    vertex  5.0 -10.975488643103695 -104.42479901366869
    vertex  5.0 -52.50000000000005 -90.93266739736603
  endloop
endfacet
facet normal  213.53673761479556 22.819324013387785 -217.11136526236575
  outer loop
    vertex  3.061616997868383e-16 -11.498130959441966 -109.39740849051006
    vertex  5.0 32.44678440936946 -99.86093421099113
    vertex  5.0 -10.975488643103695 -104.42479901366869
  endloop
endfacet
facet normal  213.53673761479496 109.15363767932348 -189.05964629155307
  outer loop
    vertex  3.061616997868383e-16 33.99186938124419 -104.6162167924669
    vertex  5.0 70.25871366768007 -78.03020667512644
    vertex  5.0 32.44678440936946 -99.86093421099113
  endloop
endfacet
facet normal  213.53673761479496 176.61429576083668 -128.31779692396495
  outer loop
    vertex  3.061616997868383e-16 73.60436669947435 -81.74593080251341
    vertex  5.0 95.92227305247306 -42.7073475229591
    vertex  5.0 70.25871366768007 -78.03020667512644
  endloop
endfacet
facet normal  213.53673761479507 213.5367376147955 -45.3886347376347
  outer loop
    vertex  3.061616997868383e-16 100.49000034068605 -44.741030738338104
    vertex  5.0 105.0 0.0
    vertex  5.0 95.92227305247306 -42.7073475229591
  endloop
endfacet
facet normal  -213.5367376147952 213.5367376147951 45.38863473763456
  outer loop
    vertex  -5.0 105.0 0.0
    vertex  -5.0 95.92227305247309 42.70734752295902
    vertex  3.061616997868383e-16 100.4900003406861 44.74103073833802
  endloop
endfacet
facet normal  -213.5367376147949 176.6142957608368 128.3177969239648
  outer loop
    vertex  -5.0 95.92227305247309 42.70734752295902
    vertex  -5.0 70.25871366768013 78.03020667512638
    vertex  3.061616997868383e-16 73.60436669947441 81.74593080251336
  endloop
endfacet
facet normal  -213.53673761479513 109.1536376793237 189.0596462915532
  outer loop
    vertex  -5.0 70.25871366768013 78.03020667512638
    vertex  -5.0 32.446784409369485 99.86093421099112
    vertex  3.061616997868383e-16 33.99186938124422 104.61621679246689
  endloop
endfacet
facet normal  -213.53673761479524 22.819324013387927 217.11136526236544
  outer loop
    vertex  -5.0 32.446784409369485 99.86093421099112
    vertex  -5.0 -10.9754886431036 104.4247990136687
    vertex  3.061616997868383e-16 -11.498130959441866 109.39740849051007
  endloop
endfacet
facet normal  -213.5367376147953 -67.46065808151315 207.6225567844819
  outer loop
    vertex  -5.0 -10.9754886431036 104.4247990136687
    vertex  -5.0 -52.49999999999998 90.93266739736607
    vertex  3.061616997868383e-16 -54.99999999999998 95.26279441628827
  endloop
endfacet
facet normal  -213.53673761479547 -146.07607953328193 162.23392204684745
  outer loop
    vertex  -5.0 -52.49999999999998 90.93266739736607
    vertex  -5.0 -84.94678440936947 61.71745149070969
    vertex  3.061616997868383e-16 -88.99186938124421 64.65637775217206
  endloop
endfacet
facet normal  -213.53673761479513 -199.4336197742246 88.79356833840056
  outer loop
    vertex  -5.0 -84.94678440936947 61.71745149070969
    vertex  -5.0 -102.70549807704958 21.83072753586477
    vertex  3.061616997868383e-16 -107.59623608071861 22.87028598995357
  endloop
endfacet
facet normal  -213.5367376147952 -218.3072753586474 7.105427357601002e-14
  outer loop
    vertex  -5.0 -102.70549807704958 21.83072753586477
    vertex  -5.0 -102.7054980770496 -21.830727535864703
    vertex  3.061616997868383e-16 -107.59623608071863 -22.870285989953498
  endloop
endfacet
facet normal  -213.5367376147948 -199.43361977422484 -88.79356833840056
  outer loop
    vertex  -5.0 -102.7054980770496 -21.830727535864703
    vertex  -5.0 -84.94678440936949 -61.71745149070967
    vertex  3.061616997868383e-16 -88.99186938124421 -64.65637775217203
  endloop
endfacet
facet normal  -213.53673761479456 -146.0760795332818 -162.23392204684717
  outer loop
    vertex  -5.0 -84.94678440936949 -61.71745149070967
    vertex  -5.0 -52.50000000000005 -90.93266739736603
    vertex  3.061616997868383e-16 -55.00000000000005 -95.26279441628822
  endloop
endfacet
facet normal  -213.53673761479524 -67.46065808151329 -207.6225567844818
  outer loop
    vertex  -5.0 -52.50000000000005 -90.93266739736603
    vertex  -5.0 -10.975488643103695 -104.42479901366869
    vertex  3.061616997868383e-16 -11.498130959441966 -109.39740849051006
  endloop
endfacet
facet normal  -213.53673761479538 22.819324013387785 -217.11136526236575
  outer loop
    vertex  -5.0 -10.975488643103695 -104.42479901366869
    vertex  -5.0 32.44678440936946 -99.86093421099113
    vertex  3.061616997868383e-16 33.99186938124419 -104.6162167924669
  endloop
endfacet
facet normal  -213.53673761479502 109.15363767932348 -189.05964629155307
  outer loop
    vertex  -5.0 32.44678440936946 -99.86093421099113
    vertex  -5.0 70.25871366768007 -78.03020667512644
    vertex  3.061616997868383e-16 73.60436669947435 -81.74593080251341
  endloop
endfacet
facet normal  -213.5367376147948 176.61429576083668 -128.31779692396495
  outer loop
    vertex  -5.0 70.25871366768007 -78.03020667512644
    vertex  -5.0 95.92227305247306 -42.7073475229591
    vertex  3.061616997868383e-16 100.49000034068605 -44.741030738338104
  endloop
endfacet
facet normal  -213.53673761479553 213.53673761479547 -45.3886347376347
  outer loop
    vertex  -5.0 95.92227305247306 -42.7073475229591
    vertex  -5.0 105.0 0.0
    vertex  3.061616997868383e-16 110.0 0.0
  endloop
endfacet
facet normal  -223.7051536916901 223.7051536916901 47.54999829656953
  outer loop
    vertex  -5.0 105.0 0.0
    vertex  3.061616997868383e-16 100.4900003406861 44.74103073833802
    vertex  3.061616997868383e-16 110.0 0.0
  endloop
endfacet
facet normal  -223.70515369169013 185.02450032087668 134.42816820605842
  outer loop
    vertex  -5.0 95.92227305247309 42.70734752295902
    vertex  3.061616997868383e-16 73.60436669947441 81.74593080251336
    vertex  3.061616997868383e-16 100.4900003406861 44.74103073833802
  endloop
endfacet
facet normal  -223.7051536916902 114.35142994976763 198.06248659115096
  outer loop
    vertex  -5.0 70.25871366768013 78.03020667512638
    vertex  3.061616997868383e-16 33.99186938124422 104.61621679246689
    vertex  3.061616997868383e-16 73.60436669947441 81.74593080251336
  endloop
endfacet
facet normal  -223.70515369169007 23.905958490215937 227.45000170343042
  outer loop
    vertex  -5.0 32.446784409369485 99.86093421099112
    vertex  3.061616997868383e-16 -11.498130959441866 109.39740849051007
    vertex  3.061616997868383e-16 33.99186938124422 104.61621679246689
  endloop
endfacet
facet normal  -223.70515369169024 -70.673070371109 217.50934520279057
  outer loop
    vertex  -5.0 -10.9754886431036 104.4247990136687
    vertex  3.061616997868383e-16 -54.99999999999998 95.26279441628827
    vertex  3.061616997868383e-16 -11.498130959441866 109.39740849051007
  endloop
endfacet
facet normal  -223.70515369169038 -153.03208332058108 169.95934690622119
  outer loop
    vertex  -5.0 -52.49999999999998 90.93266739736607
    vertex  3.061616997868383e-16 -88.99186938124421 64.65637775217206
    vertex  3.061616997868383e-16 -54.99999999999998 95.26279441628827
  endloop
endfacet
facet normal  -223.70515369169033 -208.93045881109245 93.02183349737199
  outer loop
    vertex  -5.0 -84.94678440936947 61.71745149070969
    vertex  3.061616997868383e-16 -107.59623608071861 22.87028598995357
    vertex  3.061616997868383e-16 -88.99186938124421 64.65637775217206
  endloop
endfacet
facet normal  -223.70515369169019 -228.70285989953533 7.105427357601002e-14
  outer loop
    vertex  -5.0 -102.70549807704958 21.83072753586477
    vertex  3.061616997868383e-16 -107.59623608071863 -22.870285989953498
    vertex  3.061616997868383e-16 -107.59623608071861 22.87028598995357
  endloop
endfacet
facet normal  -223.70515369169019 -208.93045881109268 -93.02183349737206
  outer loop
    vertex  -5.0 -102.7054980770496 -21.830727535864703
    vertex  3.061616997868383e-16 -88.99186938124421 -64.65637775217203
    vertex  3.061616997868383e-16 -107.59623608071863 -22.870285989953498
  endloop
endfacet
facet normal  -223.70515369168953 -153.0320833205809 -169.95934690622082
  outer loop
    vertex  -5.0 -84.94678440936949 -61.71745149070967
    vertex  3.061616997868383e-16 -55.00000000000005 -95.26279441628822
    vertex  3.061616997868383e-16 -88.99186938124421 -64.65637775217203
  endloop
endfacet
facet normal  -223.70515369168962 -70.67307037110922 -217.50934520279043
  outer loop
    vertex  -5.0 -52.50000000000005 -90.93266739736603
    vertex  3.061616997868383e-16 -11.498130959441966 -109.39740849051006
    vertex  3.061616997868383e-16 -55.00000000000005 -95.26279441628822
  endloop
endfacet
facet normal  -223.70515369169058 23.905958490215795 -227.45000170343081
  outer loop
    vertex  -5.0 -10.975488643103695 -104.42479901366869
    vertex  3.061616997868383e-16 33.99186938124419 -104.6162167924669
    vertex  3.061616997868383e-16 -11.498130959441966 -109.39740849051006
  endloop
endfacet
facet normal  -223.70515369168993 114.35142994976744 -198.06248659115082
  outer loop
    vertex  -5.0 32.44678440936946 -99.86093421099113
    vertex  3.061616997868383e-16 73.60436669947435 -81.74593080251341
    vertex  3.061616997868383e-16 33.99186938124419 -104.6162167924669
  endloop
endfacet
facet normal  -223.70515369168993 185.02450032087654 -134.42816820605847
  outer loop
    vertex  -5.0 70.25871366768007 -78.03020667512644
    vertex  3.061616997868383e-16 100.49000034068605 -44.741030738338104
    vertex  3.061616997868383e-16 73.60436669947435 -81.74593080251341
  endloop
endfacet
facet normal  -223.7051536916901 223.7051536916905 -47.54999829656974
  outer loop
    vertex  -5.0 95.92227305247306 -42.7073475229591
    vertex  3.061616997868383e-16 110.0 0.0
    vertex  3.061616997868383e-16 100.49000034068605 -44.741030738338104
  endloop
endfacet
facet normal  -203.36832153790024 -203.36832153790002 -43.22727117869959
  outer loop
    vertex  -9.184850993605148e-16 100.0 0.0
    vertex  -9.184850993605148e-16 91.35454576426008 40.67366430758001
    vertex  -5.0 95.92227305247309 42.70734752295902
  endloop
endfacet
facet normal  -203.36832153789965 -168.204091200797 -122.20742564187117
  outer loop
    vertex  -9.184850993605148e-16 91.35454576426008 40.67366430758001
    vertex  -9.184850993605148e-16 66.91306063588584 74.31448254773942
    vertex  -5.0 70.25871366768013 78.03020667512638
  endloop
endfacet
facet normal  -203.36832153790044 -103.95584540887965 -180.05680599195546
  outer loop
    vertex  -9.184850993605148e-16 66.91306063588584 74.31448254773942
    vertex  -9.184850993605148e-16 30.901699437494745 95.10565162951535
    vertex  -5.0 32.446784409369485 99.86093421099112
  endloop
endfacet
facet normal  -203.36832153790021 -21.732689536559914 -206.77272882130038
  outer loop
    vertex  -9.184850993605148e-16 30.901699437494745 95.10565162951535
    vertex  -9.184850993605148e-16 -10.452846326765334 99.45218953682733
    vertex  -5.0 -10.9754886431036 104.4247990136687
  endloop
endfacet
facet normal  -203.36832153790021 64.24824579191727 -197.7357683661732
  outer loop
    vertex  -9.184850993605148e-16 -10.452846326765334 99.45218953682733
    vertex  -9.184850993605148e-16 -49.99999999999998 86.60254037844388
    vertex  -5.0 -52.49999999999998 90.93266739736607
  endloop
endfacet
facet normal  -203.36832153790044 139.12007574598275 -154.50849718747372
  outer loop
    vertex  -9.184850993605148e-16 -49.99999999999998 86.60254037844388
    vertex  -9.184850993605148e-16 -80.90169943749473 58.77852522924732
    vertex  -5.0 -84.94678440936947 61.71745149070969
  endloop
endfacet
facet normal  -203.36832153789987 189.93678073735668 -84.56530317942912
  outer loop
    vertex  -9.184850993605148e-16 -80.90169943749473 58.77852522924732
    vertex  -9.184850993605148e-16 -97.81476007338055 20.791169081775973
    vertex  -5.0 -102.70549807704958 21.83072753586477
  endloop
endfacet
facet normal  -203.3683215379002 207.91169081775936 -7.105427357601e-14
  outer loop
    vertex  -9.184850993605148e-16 -97.81476007338055 20.791169081775973
    vertex  -9.184850993605148e-16 -97.81476007338057 -20.791169081775905
    vertex  -5.0 -102.7054980770496 -21.830727535864703
  endloop
endfacet
facet normal  -203.36832153790056 189.93678073735694 84.56530317942912
  outer loop
    vertex  -9.184850993605148e-16 -97.81476007338057 -20.791169081775905
    vertex  -9.184850993605148e-16 -80.90169943749474 -58.7785252292473
    vertex  -5.0 -84.94678440936949 -61.71745149070967
  endloop
endfacet
facet normal  -203.36832153790021 139.12007574598263 154.50849718747347
  outer loop
    vertex  -9.184850993605148e-16 -80.90169943749474 -58.7785252292473
    vertex  -9.184850993605148e-16 -50.00000000000004 -86.60254037844383
    vertex  -5.0 -52.50000000000005 -90.93266739736603
  endloop
endfacet
facet normal  -203.36832153789953 64.24824579191748 197.73576836617306
  outer loop
    vertex  -9.184850993605148e-16 -50.00000000000004 -86.60254037844383
    vertex  -9.184850993605148e-16 -10.452846326765423 -99.45218953682733
    vertex  -5.0 -10.975488643103695 -104.42479901366869
  endloop
endfacet
facet normal  -203.36832153790039 -21.732689536559842 206.7727288213007
  outer loop
    vertex  -9.184850993605148e-16 -10.452846326765423 -99.45218953682733
    vertex  -9.184850993605148e-16 30.901699437494724 -95.10565162951536
    vertex  -5.0 32.44678440936946 -99.86093421099113
  endloop
endfacet
facet normal  -203.36832153789942 -103.95584540887944 180.05680599195526
  outer loop
    vertex  -9.184850993605148e-16 30.901699437494724 -95.10565162951536
    vertex  -9.184850993605148e-16 66.91306063588578 -74.31448254773947
    vertex  -5.0 70.25871366768007 -78.03020667512644
  endloop
endfacet
facet normal  -203.36832153790021 -168.20409120079688 122.20742564187131
  outer loop
    vertex  -9.184850993605148e-16 66.91306063588578 -74.31448254773947
    vertex  -9.184850993605148e-16 91.35454576426005 -40.67366430758009
    vertex  -5.0 95.92227305247306 -42.7073475229591
  endloop
endfacet
facet normal  -203.36832153790044 -203.3683215379004 43.22727117869973
  outer loop
    vertex  -9.184850993605148e-16 91.35454576426005 -40.67366430758009
    vertex  -9.184850993605148e-16 100.0 0.0
    vertex  -5.0 105.0 0.0
  endloop
endfacet
facet normal  -213.5367376147951 -213.53673761479504 -45.388634737634554
  outer loop
    vertex  -9.184850993605148e-16 100.0 0.0
    vertex  -5.0 95.92227305247309 42.70734752295902
    vertex  -5.0 105.0 0.0
  endloop
endfacet
facet normal  -213.53673761479524 -176.61429576083677 -128.31779692396478
  outer loop
    vertex  -9.184850993605148e-16 91.35454576426008 40.67366430758001
    vertex  -5.0 70.25871366768013 78.03020667512638
    vertex  -5.0 95.92227305247309 42.70734752295902
  endloop
endfacet
facet normal  -213.53673761479473 -109.15363767932367 -189.05964629155318
  outer loop
    vertex  -9.184850993605148e-16 66.91306063588584 74.31448254773942
    vertex  -5.0 32.446784409369485 99.86093421099112
    vertex  -5.0 70.25871366768013 78.03020667512638
  endloop
endfacet
facet normal  -213.5367376147951 -22.819324013387924 -217.11136526236538
  outer loop
    vertex  -9.184850993605148e-16 30.901699437494745 95.10565162951535
    vertex  -5.0 -10.9754886431036 104.4247990136687
    vertex  -5.0 32.446784409369485 99.86093421099112
  endloop
endfacet
facet normal  -213.5367376147952 67.46065808151313 -207.62255678448187
  outer loop
    vertex  -9.184850993605148e-16 -10.452846326765334 99.45218953682733
    vertex  -5.0 -52.49999999999998 90.93266739736607
    vertex  -5.0 -10.9754886431036 104.4247990136687
  endloop
endfacet
facet normal  -213.53673761479533 146.07607953328187 -162.23392204684743
  outer loop
    vertex  -9.184850993605148e-16 -49.99999999999998 86.60254037844388
    vertex  -5.0 -84.94678440936947 61.71745149070969
    vertex  -5.0 -52.49999999999998 90.93266739736607
  endloop
endfacet
facet normal  -213.53673761479536 199.43361977422458 -88.79356833840055
  outer loop
    vertex  -9.184850993605148e-16 -80.90169943749473 58.77852522924732
    vertex  -5.0 -102.70549807704958 21.83072753586477
    vertex  -5.0 -84.94678440936947 61.71745149070969
  endloop
endfacet
facet normal  -213.5367376147952 218.3072753586473 -7.105427357601002e-14
  outer loop
    vertex  -9.184850993605148e-16 -97.81476007338055 20.791169081775973
    vertex  -5.0 -102.7054980770496 -21.830727535864703
    vertex  -5.0 -102.70549807704958 21.83072753586477
  endloop
endfacet
facet normal  -213.53673761479524 199.4336197742248 88.79356833840055
  outer loop
    vertex  -9.184850993605148e-16 -97.81476007338057 -20.791169081775905
    vertex  -5.0 -84.94678440936949 -61.71745149070967
    vertex  -5.0 -102.7054980770496 -21.830727535864703
  endloop
endfacet
facet normal  -213.53673761479524 146.07607953328178 162.23392204684714
  outer loop
    vertex  -9.184850993605148e-16 -80.90169943749474 -58.7785252292473
    vertex  -5.0 -52.50000000000005 -90.93266739736603
    vertex  -5.0 -84.94678440936949 -61.71745149070967
  endloop
endfacet
facet normal  -213.53673761479533 67.46065808151327 207.62255678448173
  outer loop
    vertex  -9.184850993605148e-16 -50.00000000000004 -86.60254037844383
    vertex  -5.0 -10.975488643103695 -104.42479901366869
    vertex  -5.0 -52.50000000000005 -90.93266739736603
  endloop
endfacet
facet normal  -213.53673761479493 -22.81932401338778 217.11136526236572
  outer loop
    vertex  -9.184850993605148e-16 -10.452846326765423 -99.45218953682733
    vertex  -5.0 32.44678440936946 -99.86093421099113
    vertex  -5.0 -10.975488643103695 -104.42479901366869
  endloop
endfacet
facet normal  -213.53673761479487 -109.15363767932347 189.059646291553
  outer loop
    vertex  -9.184850993605148e-16 30.901699437494724 -95.10565162951536
    vertex  -5.0 70.25871366768007 -78.03020667512644
    vertex  -5.0 32.44678440936946 -99.86093421099113
  endloop
endfacet
facet normal  -213.53673761479462 -176.61429576083665 128.31779692396492
  outer loop
    vertex  -9.184850993605148e-16 66.91306063588578 -74.31448254773947
    vertex  -5.0 95.92227305247306 -42.7073475229591
    vertex  -5.0 70.25871366768007 -78.03020667512644
  endloop
endfacet
facet normal  -213.53673761479567 -213.53673761479544 45.38863473763469
  outer loop
    vertex  -9.184850993605148e-16 91.35454576426005 -40.67366430758009
    vertex  -5.0 105.0 0.0
    vertex  -5.0 95.92227305247306 -42.7073475229591
  endloop
endfacet
facet normal  213.53673761479524 -213.53673761479513 -45.38863473763457
  outer loop
    vertex  5.0 105.0 0.0
    vertex  5.0 95.92227305247309 42.70734752295902
    vertex  -9.184850993605148e-16 91.35454576426008 40.67366430758001
  endloop
endfacet
facet normal  213.53673761479445 -176.61429576083682 -128.31779692396483
  outer loop
    vertex  5.0 95.92227305247309 42.70734752295902
    vertex  5.0 70.25871366768013 78.03020667512638
    vertex  -9.184850993605148e-16 66.91306063588584 74.31448254773942
  endloop
endfacet
facet normal  213.53673761479536 -109.15363767932371 -189.05964629155324
  outer loop
    vertex  5.0 70.25871366768013 78.03020667512638
    vertex  5.0 32.446784409369485 99.86093421099112
    vertex  -9.184850993605148e-16 30.901699437494745 95.10565162951535
  endloop
endfacet
facet normal  213.53673761479521 -22.81932401338793 -217.11136526236547
  outer loop
    vertex  5.0 32.446784409369485 99.86093421099112
    vertex  5.0 -10.9754886431036 104.4247990136687
    vertex  -9.184850993605148e-16 -10.452846326765334 99.45218953682733
  endloop
endfacet
facet normal  213.53673761479524 67.46065808151316 -207.62255678448196
  outer loop
    vertex  5.0 -10.9754886431036 104.4247990136687
    vertex  5.0 -52.49999999999998 90.93266739736607
    vertex  -9.184850993605148e-16 -49.99999999999998 86.60254037844388
  endloop
endfacet
facet normal  213.53673761479558 146.07607953328193 -162.23392204684748
  outer loop
    vertex  5.0 -52.49999999999998 90.93266739736607
    vertex  5.0 -84.94678440936947 61.71745149070969
    vertex  -9.184850993605148e-16 -80.90169943749473 58.77852522924732
  endloop
endfacet
facet normal  213.5367376147949 199.43361977422467 -88.79356833840058
  outer loop
    vertex  5.0 -84.94678440936947 61.71745149070969
    vertex  5.0 -102.70549807704958 21.83072753586477
    vertex  -9.184850993605148e-16 -97.81476007338055 20.791169081775973
  endloop
endfacet
facet normal  213.5367376147952 218.30727535864742 -7.105427357601003e-14
  outer loop
    vertex  5.0 -102.70549807704958 21.83072753586477
    vertex  5.0 -102.7054980770496 -21.830727535864703
    vertex  -9.184850993605148e-16 -97.81476007338057 -20.791169081775905
  endloop
endfacet
facet normal  213.53673761479547 199.43361977422487 88.79356833840058
  outer loop
    vertex  5.0 -102.7054980770496 -21.830727535864703
    vertex  5.0 -84.94678440936949 -61.71745149070967
    vertex  -9.184850993605148e-16 -80.90169943749474 -58.7785252292473
  endloop
endfacet
facet normal  213.53673761479524 146.07607953328184 162.2339220468472
  outer loop
    vertex  5.0 -84.94678440936949 -61.71745149070967
    vertex  5.0 -52.50000000000005 -90.93266739736603
    vertex  -9.184850993605148e-16 -50.00000000000004 -86.60254037844383
  endloop
endfacet
facet normal  213.5367376147945 67.4606580815133 207.62255678448182
  outer loop
    vertex  5.0 -52.50000000000005 -90.93266739736603
    vertex  5.0 -10.975488643103695 -104.42479901366869
    vertex  -9.184850993605148e-16 -10.452846326765423 -99.45218953682733
  endloop
endfacet
facet normal  213.53673761479538 -22.81932401338779 217.1113652623658
  outer loop
    vertex  5.0 -10.975488643103695 -104.42479901366869
    vertex  5.0 32.44678440936946 -99.86093421099113
    vertex  -9.184850993605148e-16 30.901699437494724 -95.10565162951536
  endloop
endfacet
facet normal  213.53673761479456 -109.1536376793235 189.0596462915531
  outer loop
    vertex  5.0 32.44678440936946 -99.86093421099113
    vertex  5.0 70.25871366768007 -78.03020667512644
    vertex  -9.184850993605148e-16 66.91306063588578 -74.31448254773947
  endloop
endfacet
facet normal  213.53673761479524 -176.61429576083674 128.31779692396498
  outer loop
    vertex  5.0 70.25871366768007 -78.03020667512644
    vertex  5.0 95.92227305247306 -42.7073475229591
    vertex  -9.184850993605148e-16 91.35454576426005 -40.67366430758009
  endloop
endfacet
facet normal  213.53673761479547 -213.53673761479553 45.38863473763471
  outer loop
    vertex  5.0 95.92227305247306 -42.7073475229591
    vertex  5.0 105.0 0.0
    vertex  -9.184850993605148e-16 100.0 0.0
  endloop
endfacet
facet normal  203.36832153790004 -203.3683215379001 -43.22727117869961
  outer loop
    vertex  5.0 105.0 0.0
    vertex  -9.184850993605148e-16 91.35454576426008 40.67366430758001
    vertex  -9.184850993605148e-16 100.0 0.0
  endloop
endfacet
facet normal  203.3683215379003 -168.20409120079705 -122.20742564187123
  outer loop
    vertex  5.0 95.92227305247309 42.70734752295902
    vertex  -9.184850993605148e-16 66.91306063588584 74.31448254773942
    vertex  -9.184850993605148e-16 91.35454576426008 40.67366430758001
  endloop
endfacet
facet normal  203.36832153789976 -103.95584540887968 -180.05680599195554
  outer loop
    vertex  5.0 70.25871366768013 78.03020667512638
    vertex  -9.184850993605148e-16 30.901699437494745 95.10565162951535
    vertex  -9.184850993605148e-16 66.91306063588584 74.31448254773942
  endloop
endfacet
facet normal  203.36832153790007 -21.73268953655992 -206.77272882130043
  outer loop
    vertex  5.0 32.446784409369485 99.86093421099112
    vertex  -9.184850993605148e-16 -10.452846326765334 99.45218953682733
    vertex  -9.184850993605148e-16 30.901699437494745 95.10565162951535
  endloop
endfacet
facet normal  203.3683215379002 64.2482457919173 -197.7357683661733
  outer loop
    vertex  5.0 -10.9754886431036 104.4247990136687
    vertex  -9.184850993605148e-16 -49.99999999999998 86.60254037844388
    vertex  -9.184850993605148e-16 -10.452846326765334 99.45218953682733
  endloop
endfacet
facet normal  203.3683215379003 139.1200757459828 -154.50849718747378
  outer loop
    vertex  5.0 -52.49999999999998 90.93266739736607
    vertex  -9.184850993605148e-16 -80.90169943749473 58.77852522924732
    vertex  -9.184850993605148e-16 -49.99999999999998 86.60254037844388
  endloop
endfacet
facet normal  203.36832153790033 189.93678073735677 -84.56530317942915
  outer loop
    vertex  5.0 -84.94678440936947 61.71745149070969
    vertex  -9.184850993605148e-16 -97.81476007338055 20.791169081775973
    vertex  -9.184850993605148e-16 -80.90169943749473 58.77852522924732
  endloop
endfacet
facet normal  203.3683215379002 207.91169081775942 -7.105427357601002e-14
  outer loop
    vertex  5.0 -102.70549807704958 21.83072753586477
    vertex  -9.184850993605148e-16 -97.81476007338057 -20.791169081775905
    vertex  -9.184850993605148e-16 -97.81476007338055 20.791169081775973
  endloop
endfacet
facet normal  203.36832153790024 189.936780737357 84.56530317942915
  outer loop
    vertex  5.0 -102.7054980770496 -21.830727535864703
    vertex  -9.184850993605148e-16 -80.90169943749474 -58.7785252292473
    vertex  -9.184850993605148e-16 -97.81476007338057 -20.791169081775905
  endloop
endfacet
facet normal  203.36832153790021 139.1200757459827 154.50849718747352
  outer loop
    vertex  5.0 -84.94678440936949 -61.71745149070967
    vertex  -9.184850993605148e-16 -50.00000000000004 -86.60254037844383
    vertex  -9.184850993605148e-16 -80.90169943749474 -58.7785252292473
  endloop
endfacet
facet normal  203.3683215379003 64.24824579191751 197.73576836617315
  outer loop
    vertex  5.0 -52.50000000000005 -90.93266739736603
    vertex  -9.184850993605148e-16 -10.452846326765423 -99.45218953682733
    vertex  -9.184850993605148e-16 -50.00000000000004 -86.60254037844383
  endloop
endfacet
facet normal  203.36832153789993 -21.73268953655985 206.77272882130075
  outer loop
    vertex  5.0 -10.975488643103695 -104.42479901366869
    vertex  -9.184850993605148e-16 30.901699437494724 -95.10565162951536
    vertex  -9.184850993605148e-16 -10.452846326765423 -99.45218953682733
  endloop
endfacet
facet normal  203.36832153789987 -103.95584540887948 180.05680599195534
  outer loop
    vertex  5.0 32.44678440936946 -99.86093421099113
    vertex  -9.184850993605148e-16 66.91306063588578 -74.31448254773947
    vertex  -9.184850993605148e-16 30.901699437494724 -95.10565162951536
  endloop
endfacet
facet normal  203.36832153789965 -168.20409120079694 122.20742564187135
  outer loop
    vertex  5.0 70.25871366768007 -78.03020667512644
    vertex  -9.184850993605148e-16 91.35454576426005 -40.67366430758009
    vertex  -9.184850993605148e-16 66.91306063588578 -74.31448254773947
  endloop
endfacet
facet normal  203.36832153790067 -203.3683215379005 43.227271178699745
  outer loop
    vertex  5.0 95.92227305247306 -42.7073475229591
    vertex  -9.184850993605148e-16 100.0 0.0
    vertex  -9.184850993605148e-16 91.35454576426005 -40.67366430758009
  endloop
endfacet
facet normal  191.80306304566108 139.35308230436624 166.04493840107955
  outer loop
    vertex  0.0 -48.636363636363654 109.4727272727273
    vertex  13.213250177556814 -48.636363636363654 94.20973954634235
    vertex  4.083118855792847 -36.06981595356015 94.20973954634235
  endloop
endfacet
facet normal  -73.26225093710353 225.47802360552606 166.04493840107958
  outer loop
    vertex  0.0 -48.636363636363654 109.4727272727273
    vertex  4.083118855792847 -36.06981595356015 94.20973954634235
    vertex  -10.689743944571253 -40.86981004714485 94.20973954634235
  endloop
endfacet
facet normal  -237.08162421711498 2.842170943040401e-14 166.04493840107958
  outer loop
    vertex  0.0 -48.636363636363654 109.4727272727273
    vertex  -10.689743944571253 -40.86981004714485 94.20973954634235
    vertex  -10.689743944571255 -56.40291722558245 94.20973954634235
  endloop
endfacet
facet normal  -73.26225093710364 -225.47802360552603 166.04493840107952
  outer loop
    vertex  0.0 -48.636363636363654 109.4727272727273
    vertex  -10.689743944571255 -56.40291722558245 94.20973954634235
    vertex  4.083118855792844 -61.20291131916716 94.20973954634235
  endloop
endfacet
facet normal  191.80306304566108 -139.35308230436627 166.04493840107955
  outer loop
    vertex  0.0 -48.636363636363654 109.4727272727273
    vertex  4.083118855792844 -61.20291131916716 94.20973954634235
    vertex  13.213250177556814 -48.636363636363654 94.20973954634235
  endloop
endfacet
facet normal  171.59938671457834 124.67425222777929 71.45871269597174
  outer loop
    vertex  17.505415482954543 -48.636363636363654 83.9026278409091
    vertex  5.409470877827282 -31.987724170845663 83.9026278409091
    vertex  4.083118855792847 -36.06981595356015 94.20973954634235
  endloop
endfacet
facet normal  -65.54513327633174 201.72717762652417 71.45871269597167
  outer loop
    vertex  5.409470877827282 -31.987724170845663 83.9026278409091
    vertex  -14.162178619304552 -38.34693858023065 83.9026278409091
    vertex  -10.689743944571253 -40.86981004714485 94.20973954634235
  endloop
endfacet
facet normal  -212.10850687649315 1.830910837240872e-14 71.4587126959717
  outer loop
    vertex  -14.162178619304552 -38.34693858023065 83.9026278409091
    vertex  -14.162178619304553 -58.92578869249665 83.9026278409091
    vertex  -10.689743944571255 -56.40291722558245 94.20973954634235
  endloop
endfacet
facet normal  -65.54513327633178 -201.72717762652414 71.45871269597166
  outer loop
    vertex  -14.162178619304553 -58.92578869249665 83.9026278409091
    vertex  5.409470877827278 -65.28500310188164 83.9026278409091
    vertex  4.083118855792844 -61.20291131916716 94.20973954634235
  endloop
endfacet
facet normal  171.59938671457832 -124.67425222777932 71.45871269597171
  outer loop
    vertex  5.409470877827278 -65.28500310188164 83.9026278409091
    vertex  17.505415482954543 -48.636363636363654 83.9026278409091
    vertex  13.213250177556814 -48.636363636363654 94.20973954634235
  endloop
endfacet
facet normal  129.52481071830897 94.10528341869608 53.93769997275542
  outer loop
    vertex  17.505415482954543 -48.636363636363654 83.9026278409091
    vertex  4.083118855792847 -36.06981595356015 94.20973954634235
    vertex  13.213250177556814 -48.636363636363654 94.20973954634235
  endloop
endfacet
facet normal  -49.4740753079973 152.26554709239215 53.93769997275544
  outer loop
    vertex  5.409470877827282 -31.987724170845663 83.9026278409091
    vertex  -10.689743944571253 -40.86981004714485 94.20973954634235
    vertex  4.083118855792847 -36.06981595356015 94.20973954634235
  endloop
endfacet
facet normal  -160.1014708206233 2.1316282072803006e-14 53.937699972755425
  outer loop
    vertex  -14.162178619304552 -38.34693858023065 83.9026278409091
    vertex  -10.689743944571255 -56.40291722558245 94.20973954634235
    vertex  -10.689743944571253 -40.86981004714485 94.20973954634235
  endloop
endfacet
facet normal  -49.474075307997374 -152.26554709239213 53.93769997275541
  outer loop
    vertex  -14.162178619304553 -58.92578869249665 83.9026278409091
    vertex  4.083118855792844 -61.20291131916716 94.20973954634235
    vertex  -10.689743944571255 -56.40291722558245 94.20973954634235
  endloop
endfacet
facet normal  129.524810718309 -94.1052834186961 53.9376999727554
  outer loop
    vertex  5.409470877827278 -65.28500310188164 83.9026278409091
    vertex  13.213250177556814 -48.636363636363654 94.20973954634235
    vertex  4.083118855792844 -61.20291131916716 94.20973954634235
  endloop
endfacet
facet normal  80.96568201874112 58.82501129557436 -52.90803966079319
  outer loop
    vertex  13.333001154119314 -48.636363636363654 77.51754205877133
    vertex  4.120123942643656 -35.95592600696768 77.51754205877133
    vertex  5.409470877827282 -31.987724170845663 83.9026278409091
  endloop
endfacet
facet normal  -30.926138608842887 95.18086766483582 -52.908039660793214
  outer loop
    vertex  4.120123942643656 -35.95592600696768 77.51754205877133
    vertex  -10.786624519703311 -40.7994221891738 77.51754205877133
    vertex  -14.162178619304552 -38.34693858023065 83.9026278409091
  endloop
endfacet
facet normal  -100.07908681979646 1.134219079925774e-14 -52.9080396607932
  outer loop
    vertex  -10.786624519703311 -40.7994221891738 77.51754205877133
    vertex  -10.786624519703313 -56.47330508355351 77.51754205877133
    vertex  -14.162178619304553 -58.92578869249665 83.9026278409091
  endloop
endfacet
facet normal  -30.926138608842933 -95.18086766483582 -52.908039660793065
  outer loop
    vertex  -10.786624519703313 -56.47330508355351 77.51754205877133
    vertex  4.120123942643653 -61.316801265759636 77.51754205877133
    vertex  5.409470877827278 -65.28500310188164 83.9026278409091
  endloop
endfacet
facet normal  80.96568201874116 -58.825011295574384 -52.90803966079322
  outer loop
    vertex  4.120123942643653 -61.316801265759636 77.51754205877133
    vertex  13.333001154119314 -48.636363636363654 77.51754205877133
    vertex  17.505415482954543 -48.636363636363654 83.9026278409091
  endloop
endfacet
facet normal  106.30299114321683 77.23364391972424 -69.46502186153896
  outer loop
    vertex  13.333001154119314 -48.636363636363654 77.51754205877133
    vertex  5.409470877827282 -31.987724170845663 83.9026278409091
    vertex  17.505415482954543 -48.636363636363654 83.9026278409091
  endloop
endfacet
facet normal  -40.604129510929766 124.96666093712048 -69.465021861539
  outer loop
    vertex  4.120123942643656 -35.95592600696768 77.51754205877133
    vertex  -14.162178619304552 -38.34693858023065 83.9026278409091
    vertex  5.409470877827282 -31.987724170845663 83.9026278409091
  endloop
endfacet
facet normal  -131.3977232645741 1.0658141036401503e-14 -69.46502186153896
  outer loop
    vertex  -10.786624519703311 -40.7994221891738 77.51754205877133
    vertex  -14.162178619304553 -58.92578869249665 83.9026278409091
    vertex  -14.162178619304552 -38.34693858023065 83.9026278409091
  endloop
endfacet
facet normal  -40.60412951092979 -124.96666093712047 -69.46502186153884
  outer loop
    vertex  -10.786624519703313 -56.47330508355351 77.51754205877133
    vertex  5.409470877827278 -65.28500310188164 83.9026278409091
    vertex  -14.162178619304553 -58.92578869249665 83.9026278409091
  endloop
endfacet
facet normal  106.30299114321681 -77.23364391972427 -69.46502186153884
  outer loop
    vertex  4.120123942643653 -61.316801265759636 77.51754205877133
    vertex  17.505415482954543 -48.636363636363654 83.9026278409091
    vertex  5.409470877827278 -65.28500310188164 83.9026278409091
  endloop
endfacet
facet normal  47.140060210905965 34.24925851595654 -169.0682895474745
  outer loop
    vertex  0.0 -48.636363636363654 73.80000000000001
    vertex  4.120123942643656 -35.95592600696768 77.51754205877133
    vertex  13.333001154119314 -48.636363636363654 77.51754205877133
  endloop
endfacet
facet normal  -18.005900768849532 55.41646436829947 -169.0682895474745
  outer loop
    vertex  0.0 -48.636363636363654 73.80000000000001
    vertex  -10.786624519703311 -40.7994221891738 77.51754205877133
    vertex  4.120123942643656 -35.95592600696768 77.51754205877133
  endloop
endfacet
facet normal  -58.268318884112865 7.105427357601002e-15 -169.06828954747456
  outer loop
    vertex  0.0 -48.636363636363654 73.80000000000001
    vertex  -10.786624519703313 -56.47330508355351 77.51754205877133
    vertex  -10.786624519703311 -40.7994221891738 77.51754205877133
  endloop
endfacet
facet normal  -18.005900768849553 -55.41646436829947 -169.0682895474746
  outer loop
    vertex  0.0 -48.636363636363654 73.80000000000001
    vertex  4.120123942643653 -61.316801265759636 77.51754205877133
    vertex  -10.786624519703313 -56.47330508355351 77.51754205877133
  endloop
endfacet
facet normal  47.140060210905986 -34.249258515956555 -169.06828954747462
  outer loop
    vertex  0.0 -48.636363636363654 73.80000000000001
    vertex  13.333001154119314 -48.636363636363654 77.51754205877133
    vertex  4.120123942643653 -61.316801265759636 77.51754205877133
  endloop
endfacet
facet normal  42.705098312484246 31.02707008666979 131.43277802978338
  outer loop
    vertex  0.0 96.36363636363635 63.636363636363654
    vertex  11.755705045849464 96.36363636363635 59.8167035238626
    vertex  3.632712640026805 107.54397625113529 59.8167035238626
  endloop
endfacet
facet normal  -16.311896062463187 50.20285397155686 131.4327780297834
  outer loop
    vertex  0.0 96.36363636363635 63.636363636363654
    vertex  3.632712640026805 107.54397625113529 59.8167035238626
    vertex  -9.510565162951536 103.27346641988687 59.8167035238626
  endloop
endfacet
facet normal  -52.78640450004212 0.0 131.43277802978344
  outer loop
    vertex  0.0 96.36363636363635 63.636363636363654
    vertex  -9.510565162951536 103.27346641988687 59.8167035238626
    vertex  -9.510565162951536 89.45380630738582 59.8167035238626
  endloop
endfacet
facet normal  -16.311896062463187 -50.202853971556856 131.43277802978338
  outer loop
    vertex  0.0 96.36363636363635 63.636363636363654
    vertex  -9.510565162951536 89.45380630738582 59.8167035238626
    vertex  3.6327126400268024 85.1832964761374 59.8167035238626
  endloop
endfacet
facet normal  42.705098312484246 -31.027070086669802 131.43277802978338
  outer loop
    vertex  0.0 96.36363636363635 63.636363636363654
    vertex  3.6327126400268024 85.1832964761374 59.8167035238626
    vertex  11.755705045849464 96.36363636363635 59.8167035238626
  endloop
endfacet
facet normal  180.90169943749473 131.43277802978338 131.43277802978338
  outer loop
    vertex  19.02113032590307 96.36363636363635 49.8167035238626
    vertex  5.877852522924731 114.45380630738582 49.8167035238626
    vertex  3.632712640026805 107.54397625113529 59.8167035238626
  endloop
endfacet
facet normal  -69.09830056250527 212.66270208800992 131.43277802978326
  outer loop
    vertex  5.877852522924731 114.45380630738582 49.8167035238626
    vertex  -15.388417685876263 107.54397625113529 49.8167035238626
    vertex  -9.510565162951536 103.27346641988687 59.8167035238626
  endloop
endfacet
facet normal  -223.6067977499789 3.552713678800501e-14 131.43277802978332
  outer loop
    vertex  -15.388417685876263 107.54397625113529 49.8167035238626
    vertex  -15.388417685876266 85.1832964761374 49.8167035238626
    vertex  -9.510565162951536 89.45380630738582 59.8167035238626
  endloop
endfacet
facet normal  -69.09830056250527 -212.66270208800992 131.4327780297834
  outer loop
    vertex  -15.388417685876266 85.1832964761374 49.8167035238626
    vertex  5.8778525229247265 78.27346641988687 49.8167035238626
    vertex  3.6327126400268024 85.1832964761374 59.8167035238626
  endloop
endfacet
facet normal  180.90169943749473 -131.43277802978344 131.43277802978332
  outer loop
    vertex  5.8778525229247265 78.27346641988687 49.8167035238626
    vertex  19.02113032590307 96.36363636363635 49.8167035238626
    vertex  11.755705045849464 96.36363636363635 59.8167035238626
  endloop
endfacet
facet normal  111.80339887498945 81.2299240582266 81.22992405822653
  outer loop
    vertex  19.02113032590307 96.36363636363635 49.8167035238626
    vertex  3.632712640026805 107.54397625113529 59.8167035238626
    vertex  11.755705045849464 96.36363636363635 59.8167035238626
  endloop
endfacet
facet normal  -42.70509831248418 131.4327780297834 81.22992405822662
  outer loop
    vertex  5.877852522924731 114.45380630738582 49.8167035238626
    vertex  -9.510565162951536 103.27346641988687 59.8167035238626
    vertex  3.632712640026805 107.54397625113529 59.8167035238626
  endloop
endfacet
facet normal  -138.19660112501055 0.0 81.22992405822653
  outer loop
    vertex  -15.388417685876263 107.54397625113529 49.8167035238626
    vertex  -9.510565162951536 89.45380630738582 59.8167035238626
    vertex  -9.510565162951536 103.27346641988687 59.8167035238626
  endloop
endfacet
facet normal  -42.70509831248418 -131.4327780297834 81.22992405822649
  outer loop
    vertex  -15.388417685876266 85.1832964761374 49.8167035238626
    vertex  3.6327126400268024 85.1832964761374 59.8167035238626
    vertex  -9.510565162951536 89.45380630738582 59.8167035238626
  endloop
endfacet
facet normal  111.80339887498945 -81.22992405822662 81.22992405822657
  outer loop
    vertex  5.8778525229247265 78.27346641988687 49.8167035238626
    vertex  11.755705045849464 96.36363636363635 59.8167035238626
    vertex  3.6327126400268024 85.1832964761374 59.8167035238626
  endloop
endfacet
facet normal  223.60679774997885 162.4598481164531 2.842170943040401e-14
  outer loop
    vertex  19.021130325903073 96.36363636363635 37.45602374886471
    vertex  5.877852522924732 114.45380630738582 37.45602374886471
    vertex  5.877852522924731 114.45380630738582 49.8167035238626
  endloop
endfacet
facet normal  -85.41019662496844 262.86555605956664 0.0
  outer loop
    vertex  5.877852522924732 114.45380630738582 37.45602374886471
    vertex  -15.388417685876266 107.54397625113529 37.45602374886471
    vertex  -15.388417685876263 107.54397625113529 49.8167035238626
  endloop
endfacet
facet normal  -276.3932022500208 2.1956978057953853e-14 3.972054645195636e-14
  outer loop
    vertex  -15.388417685876266 107.54397625113529 37.45602374886471
    vertex  -15.388417685876268 85.1832964761374 37.45602374886471
    vertex  -15.388417685876266 85.1832964761374 49.8167035238626
  endloop
endfacet
facet normal  -85.41019662496844 -262.86555605956664 0.0
  outer loop
    vertex  -15.388417685876268 85.1832964761374 37.45602374886471
    vertex  5.877852522924728 78.27346641988687 37.45602374886471
    vertex  5.8778525229247265 78.27346641988687 49.8167035238626
  endloop
endfacet
facet normal  223.60679774997885 -162.45984811645314 8.526512829121202e-14
  outer loop
    vertex  5.877852522924728 78.27346641988687 37.45602374886471
    vertex  19.021130325903073 96.36363636363635 37.45602374886471
    vertex  19.02113032590307 96.36363636363635 49.8167035238626
  endloop
endfacet
facet normal  223.60679774997885 162.45984811645306 6.426919421098444e-14
  outer loop
    vertex  19.021130325903073 96.36363636363635 37.45602374886471
    vertex  5.877852522924731 114.45380630738582 49.8167035238626
    vertex  19.02113032590307 96.36363636363635 49.8167035238626
  endloop
endfacet
facet normal  -85.41019662496844 262.86555605956664 -6.137161939757021e-15
  outer loop
    vertex  5.877852522924732 114.45380630738582 37.45602374886471
    vertex  -15.388417685876263 107.54397625113529 49.8167035238626
    vertex  5.877852522924731 114.45380630738582 49.8167035238626
  endloop
endfacet
facet normal  -276.3932022500208 4.3913956115907705e-14 7.944109290391271e-14
  outer loop
    vertex  -15.388417685876266 107.54397625113529 37.45602374886471
    vertex  -15.388417685876266 85.1832964761374 49.8167035238626
    vertex  -15.388417685876263 107.54397625113529 49.8167035238626
  endloop
endfacet
facet normal  -85.41019662496844 -262.86555605956664 1.2274323879514041e-14
  outer loop
    vertex  -15.388417685876268 85.1832964761374 37.45602374886471
    vertex  5.8778525229247265 78.27346641988687 49.8167035238626
    vertex  -15.388417685876266 85.1832964761374 49.8167035238626
  endloop
endfacet
facet normal  223.60679774997885 -162.45984811645312 3.213459710549222e-14
  outer loop
    vertex  5.877852522924728 78.27346641988687 37.45602374886471
    vertex  19.02113032590307 96.36363636363635 49.8167035238626
    vertex  5.8778525229247265 78.27346641988687 49.8167035238626
  endloop
endfacet
facet normal  111.80339887498945 81.2299240582266 -81.22992405822662
  outer loop
    vertex  11.755705045849465 96.36363636363635 27.45602374886471
    vertex  3.6327126400268055 107.54397625113529 27.45602374886471
    vertex  5.877852522924732 114.45380630738582 37.45602374886471
  endloop
endfacet
facet normal  -42.70509831248418 131.43277802978344 -81.2299240582265
  outer loop
    vertex  3.6327126400268055 107.54397625113529 27.45602374886471
    vertex  -9.510565162951536 103.27346641988687 27.45602374886471
    vertex  -15.388417685876266 107.54397625113529 37.45602374886471
  endloop
endfacet
facet normal  -138.19660112501055 1.7763568394002505e-14 -81.22992405822657
  outer loop
    vertex  -9.510565162951536 103.27346641988687 27.45602374886471
    vertex  -9.510565162951538 89.45380630738582 27.45602374886471
    vertex  -15.388417685876268 85.1832964761374 37.45602374886471
  endloop
endfacet
facet normal  -42.70509831248418 -131.4327780297834 -81.22992405822663
  outer loop
    vertex  -9.510565162951538 89.45380630738582 27.45602374886471
    vertex  3.632712640026803 85.1832964761374 27.45602374886471
    vertex  5.877852522924728 78.27346641988687 37.45602374886471
  endloop
endfacet
facet normal  111.80339887498945 -81.22992405822663 -81.22992405822656
  outer loop
    vertex  3.632712640026803 85.1832964761374 27.45602374886471
    vertex  11.755705045849465 96.36363636363635 27.45602374886471
    vertex  19.021130325903073 96.36363636363635 37.45602374886471
  endloop
endfacet
facet normal  180.90169943749473 131.4327780297834 -131.43277802978338
  outer loop
    vertex  11.755705045849465 96.36363636363635 27.45602374886471
    vertex  5.877852522924732 114.45380630738582 37.45602374886471
    vertex  19.021130325903073 96.36363636363635 37.45602374886471
  endloop
endfacet
facet normal  -69.09830056250527 212.66270208801 -131.43277802978344
  outer loop
    vertex  3.6327126400268055 107.54397625113529 27.45602374886471
    vertex  -15.388417685876266 107.54397625113529 37.45602374886471
    vertex  5.877852522924732 114.45380630738582 37.45602374886471
  endloop
endfacet
facet normal  -223.6067977499789 2.1316282072803006e-14 -131.43277802978335
  outer loop
    vertex  -9.510565162951536 103.27346641988687 27.45602374886471
    vertex  -15.388417685876268 85.1832964761374 37.45602374886471
    vertex  -15.388417685876266 107.54397625113529 37.45602374886471
  endloop
endfacet
facet normal  -69.09830056250527 -212.66270208800995 -131.43277802978332
  outer loop
    vertex  -9.510565162951538 89.45380630738582 27.45602374886471
    vertex  5.877852522924728 78.27346641988687 37.45602374886471
    vertex  -15.388417685876268 85.1832964761374 37.45602374886471
  endloop
endfacet
facet normal  180.90169943749473 -131.43277802978346 -131.43277802978344
  outer loop
    vertex  3.632712640026803 85.1832964761374 27.45602374886471
    vertex  19.021130325903073 96.36363636363635 37.45602374886471
    vertex  5.877852522924728 78.27346641988687 37.45602374886471
  endloop
endfacet
facet normal  42.705098312484246 31.027070086669795 -131.4327780297834
  outer loop
    vertex  0.0 96.36363636363635 23.636363636363654
    vertex  3.6327126400268055 107.54397625113529 27.45602374886471
    vertex  11.755705045849465 96.36363636363635 27.45602374886471
  endloop
endfacet
facet normal  -16.311896062463187 50.20285397155687 -131.4327780297834
  outer loop
    vertex  0.0 96.36363636363635 23.636363636363654
    vertex  -9.510565162951536 103.27346641988687 27.45602374886471
    vertex  3.6327126400268055 107.54397625113529 27.45602374886471
  endloop
endfacet
facet normal  -52.78640450004212 7.105427357601002e-15 -131.43277802978344
  outer loop
    vertex  0.0 96.36363636363635 23.636363636363654
    vertex  -9.510565162951538 89.45380630738582 27.45602374886471
    vertex  -9.510565162951536 103.27346641988687 27.45602374886471
  endloop
endfacet
facet normal  -16.311896062463187 -50.20285397155686 -131.43277802978338
  outer loop
    vertex  0.0 96.36363636363635 23.636363636363654
    vertex  3.632712640026803 85.1832964761374 27.45602374886471
    vertex  -9.510565162951538 89.45380630738582 27.45602374886471
  endloop
endfacet
facet normal  42.705098312484246 -31.027070086669806 -131.4327780297834
  outer loop
    vertex  0.0 96.36363636363635 23.636363636363654
    vertex  11.755705045849465 96.36363636363635 27.45602374886471
    vertex  3.632712640026803 85.1832964761374 27.45602374886471
  endloop
endfacet
facet normal  42.705098312484246 31.02707008666979 131.43277802978338
  outer loop
    vertex  0.0 -91.63636363636365 -35.363636363636346
    vertex  11.755705045849464 -91.63636363636365 -39.1832964761374
    vertex  3.632712640026805 -80.45602374886471 -39.1832964761374
  endloop
endfacet
facet normal  -16.311896062463187 50.20285397155686 131.4327780297834
  outer loop
    vertex  0.0 -91.63636363636365 -35.363636363636346
    vertex  3.632712640026805 -80.45602374886471 -39.1832964761374
    vertex  -9.510565162951536 -84.72653358011313 -39.1832964761374
  endloop
endfacet
facet normal  -52.78640450004212 0.0 131.43277802978344
  outer loop
    vertex  0.0 -91.63636363636365 -35.363636363636346
    vertex  -9.510565162951536 -84.72653358011313 -39.1832964761374
    vertex  -9.510565162951536 -98.54619369261418 -39.1832964761374
  endloop
endfacet
facet normal  -16.311896062463187 -50.202853971556856 131.43277802978338
  outer loop
    vertex  0.0 -91.63636363636365 -35.363636363636346
    vertex  -9.510565162951536 -98.54619369261418 -39.1832964761374
    vertex  3.6327126400268024 -102.8167035238626 -39.1832964761374
  endloop
endfacet
facet normal  42.705098312484246 -31.027070086669802 131.43277802978338
  outer loop
    vertex  0.0 -91.63636363636365 -35.363636363636346
    vertex  3.6327126400268024 -102.8167035238626 -39.1832964761374
    vertex  11.755705045849464 -91.63636363636365 -39.1832964761374
  endloop
endfacet
facet normal  180.90169943749473 131.43277802978338 131.43277802978338
  outer loop
    vertex  19.02113032590307 -91.63636363636365 -49.1832964761374
    vertex  5.877852522924731 -73.54619369261418 -49.1832964761374
    vertex  3.632712640026805 -80.45602374886471 -39.1832964761374
  endloop
endfacet
facet normal  -69.09830056250527 212.66270208800992 131.43277802978326
  outer loop
    vertex  5.877852522924731 -73.54619369261418 -49.1832964761374
    vertex  -15.388417685876263 -80.45602374886471 -49.1832964761374
    vertex  -9.510565162951536 -84.72653358011313 -39.1832964761374
  endloop
endfacet
facet normal  -223.6067977499789 3.552713678800501e-14 131.43277802978332
  outer loop
    vertex  -15.388417685876263 -80.45602374886471 -49.1832964761374
    vertex  -15.388417685876266 -102.8167035238626 -49.1832964761374
    vertex  -9.510565162951536 -98.54619369261418 -39.1832964761374
  endloop
endfacet
facet normal  -69.09830056250527 -212.66270208800992 131.4327780297834
  outer loop
    vertex  -15.388417685876266 -102.8167035238626 -49.1832964761374
    vertex  5.8778525229247265 -109.72653358011313 -49.1832964761374
    vertex  3.6327126400268024 -102.8167035238626 -39.1832964761374
  endloop
endfacet
facet normal  180.90169943749473 -131.43277802978344 131.43277802978332
  outer loop
    vertex  5.8778525229247265 -109.72653358011313 -49.1832964761374
    vertex  19.02113032590307 -91.63636363636365 -49.1832964761374
    vertex  11.755705045849464 -91.63636363636365 -39.1832964761374
  endloop
endfacet
facet normal  111.80339887498945 81.2299240582266 81.22992405822653
  outer loop
    vertex  19.02113032590307 -91.63636363636365 -49.1832964761374
    vertex  3.632712640026805 -80.45602374886471 -39.1832964761374
    vertex  11.755705045849464 -91.63636363636365 -39.1832964761374
  endloop
endfacet
facet normal  -42.70509831248418 131.4327780297834 81.22992405822662
  outer loop
    vertex  5.877852522924731 -73.54619369261418 -49.1832964761374
    vertex  -9.510565162951536 -84.72653358011313 -39.1832964761374
    vertex  3.632712640026805 -80.45602374886471 -39.1832964761374
  endloop
endfacet
facet normal  -138.19660112501055 0.0 81.22992405822653
  outer loop
    vertex  -15.388417685876263 -80.45602374886471 -49.1832964761374
    vertex  -9.510565162951536 -98.54619369261418 -39.1832964761374
    vertex  -9.510565162951536 -84.72653358011313 -39.1832964761374
  endloop
endfacet
facet normal  -42.70509831248418 -131.4327780297834 81.22992405822649
  outer loop
    vertex  -15.388417685876266 -102.8167035238626 -49.1832964761374
    vertex  3.6327126400268024 -102.8167035238626 -39.1832964761374
    vertex  -9.510565162951536 -98.54619369261418 -39.1832964761374
  endloop
endfacet
facet normal  111.80339887498945 -81.22992405822662 81.22992405822657
  outer loop
    vertex  5.8778525229247265 -109.72653358011313 -49.1832964761374
    vertex  11.755705045849464 -91.63636363636365 -39.1832964761374
    vertex  3.6327126400268024 -102.8167035238626 -39.1832964761374
  endloop
endfacet
facet normal  223.60679774997885 162.4598481164531 2.842170943040401e-14
  outer loop
    vertex  19.021130325903073 -91.63636363636365 -61.54397625113529
    vertex  5.877852522924732 -73.54619369261418 -61.54397625113529
    vertex  5.877852522924731 -73.54619369261418 -49.1832964761374
  endloop
endfacet
facet normal  -85.41019662496844 262.86555605956664 0.0
  outer loop
    vertex  5.877852522924732 -73.54619369261418 -61.54397625113529
    vertex  -15.388417685876266 -80.45602374886471 -61.54397625113529
    vertex  -15.388417685876263 -80.45602374886471 -49.1832964761374
  endloop
endfacet
facet normal  -276.3932022500208 2.1956978057953853e-14 3.972054645195636e-14
  outer loop
    vertex  -15.388417685876266 -80.45602374886471 -61.54397625113529
    vertex  -15.388417685876268 -102.8167035238626 -61.54397625113529
    vertex  -15.388417685876266 -102.8167035238626 -49.1832964761374
  endloop
endfacet
facet normal  -85.41019662496844 -262.86555605956664 0.0
  outer loop
    vertex  -15.388417685876268 -102.8167035238626 -61.54397625113529
    vertex  5.877852522924728 -109.72653358011313 -61.54397625113529
    vertex  5.8778525229247265 -109.72653358011313 -49.1832964761374
  endloop
endfacet
facet normal  223.60679774997885 -162.45984811645314 8.526512829121202e-14
  outer loop
    vertex  5.877852522924728 -109.72653358011313 -61.54397625113529
    vertex  19.021130325903073 -91.63636363636365 -61.54397625113529
    vertex  19.02113032590307 -91.63636363636365 -49.1832964761374
  endloop
endfacet
facet normal  223.60679774997885 162.45984811645306 6.426919421098444e-14
  outer loop
    vertex  19.021130325903073 -91.63636363636365 -61.54397625113529
    vertex  5.877852522924731 -73.54619369261418 -49.1832964761374
    vertex  19.02113032590307 -91.63636363636365 -49.1832964761374
  endloop
endfacet
facet normal  -85.41019662496844 262.86555605956664 -6.137161939757021e-15
  outer loop
    vertex  5.877852522924732 -73.54619369261418 -61.54397625113529
    vertex  -15.388417685876263 -80.45602374886471 -49.1832964761374
    vertex  5.877852522924731 -73.54619369261418 -49.1832964761374
  endloop
endfacet
facet normal  -276.3932022500208 4.3913956115907705e-14 7.944109290391271e-14
  outer loop
    vertex  -15.388417685876266 -80.45602374886471 -61.54397625113529
    vertex  -15.388417685876266 -102.8167035238626 -49.1832964761374
    vertex  -15.388417685876263 -80.45602374886471 -49.1832964761374
  endloop
endfacet
facet normal  -85.41019662496844 -262.86555605956664 1.2274323879514041e-14
  outer loop
    vertex  -15.388417685876268 -102.8167035238626 -61.54397625113529
    vertex  5.8778525229247265 -109.72653358011313 -49.1832964761374
    vertex  -15.388417685876266 -102.8167035238626 -49.1832964761374
  endloop
endfacet
facet normal  223.60679774997885 -162.45984811645312 3.213459710549222e-14
  outer loop
    vertex  5.877852522924728 -109.72653358011313 -61.54397625113529
    vertex  19.02113032590307 -91.63636363636365 -49.1832964761374
    vertex  5.8778525229247265 -109.72653358011313 -49.1832964761374
  endloop
endfacet
facet normal  111.80339887498945 81.2299240582266 -81.22992405822662
  outer loop
    vertex  11.755705045849465 -91.63636363636365 -71.54397625113529
    vertex  3.6327126400268055 -80.45602374886471 -71.54397625113529
    vertex  5.877852522924732 -73.54619369261418 -61.54397625113529
  endloop
endfacet
facet normal  -42.70509831248418 131.43277802978344 -81.2299240582265
  outer loop
    vertex  3.6327126400268055 -80.45602374886471 -71.54397625113529
    vertex  -9.510565162951536 -84.72653358011313 -71.54397625113529
    vertex  -15.388417685876266 -80.45602374886471 -61.54397625113529
  endloop
endfacet
facet normal  -138.19660112501055 1.7763568394002505e-14 -81.22992405822657
  outer loop
    vertex  -9.510565162951536 -84.72653358011313 -71.54397625113529
    vertex  -9.510565162951538 -98.54619369261418 -71.54397625113529
    vertex  -15.388417685876268 -102.8167035238626 -61.54397625113529
  endloop
endfacet
facet normal  -42.70509831248418 -131.4327780297834 -81.22992405822663
  outer loop
    vertex  -9.510565162951538 -98.54619369261418 -71.54397625113529
    vertex  3.632712640026803 -102.8167035238626 -71.54397625113529
    vertex  5.877852522924728 -109.72653358011313 -61.54397625113529
  endloop
endfacet
facet normal  111.80339887498945 -81.22992405822663 -81.22992405822656
  outer loop
    vertex  3.632712640026803 -102.8167035238626 -71.54397625113529
    vertex  11.755705045849465 -91.63636363636365 -71.54397625113529
    vertex  19.021130325903073 -91.63636363636365 -61.54397625113529
  endloop
endfacet
facet normal  180.90169943749473 131.4327780297834 -131.43277802978338
  outer loop
    vertex  11.755705045849465 -91.63636363636365 -71.54397625113529
    vertex  5.877852522924732 -73.54619369261418 -61.54397625113529
    vertex  19.021130325903073 -91.63636363636365 -61.54397625113529
  endloop
endfacet
facet normal  -69.09830056250527 212.66270208801 -131.43277802978344
  outer loop
    vertex  3.6327126400268055 -80.45602374886471 -71.54397625113529
    vertex  -15.388417685876266 -80.45602374886471 -61.54397625113529
    vertex  5.877852522924732 -73.54619369261418 -61.54397625113529
  endloop
endfacet
facet normal  -223.6067977499789 2.1316282072803006e-14 -131.43277802978335
  outer loop
    vertex  -9.510565162951536 -84.72653358011313 -71.54397625113529
    vertex  -15.388417685876268 -102.8167035238626 -61.54397625113529
    vertex  -15.388417685876266 -80.45602374886471 -61.54397625113529
  endloop
endfacet
facet normal  -69.09830056250527 -212.66270208800995 -131.43277802978332
  outer loop
    vertex  -9.510565162951538 -98.54619369261418 -71.54397625113529
    vertex  5.877852522924728 -109.72653358011313 -61.54397625113529
    vertex  -15.388417685876268 -102.8167035238626 -61.54397625113529
  endloop
endfacet
facet normal  180.90169943749473 -131.43277802978346 -131.43277802978344
  outer loop
    vertex  3.632712640026803 -102.8167035238626 -71.54397625113529
    vertex  19.021130325903073 -91.63636363636365 -61.54397625113529
    vertex  5.877852522924728 -109.72653358011313 -61.54397625113529
  endloop
endfacet
facet normal  42.705098312484246 31.027070086669795 -131.4327780297834
  outer loop
    vertex  0.0 -91.63636363636365 -75.36363636363635
    vertex  3.6327126400268055 -80.45602374886471 -71.54397625113529
    vertex  11.755705045849465 -91.63636363636365 -71.54397625113529
  endloop
endfacet
facet normal  -16.311896062463187 50.20285397155687 -131.4327780297834
  outer loop
    vertex  0.0 -91.63636363636365 -75.36363636363635
    vertex  -9.510565162951536 -84.72653358011313 -71.54397625113529
    vertex  3.6327126400268055 -80.45602374886471 -71.54397625113529
  endloop
endfacet
facet normal  -52.78640450004212 7.105427357601002e-15 -131.43277802978344
  outer loop
    vertex  0.0 -91.63636363636365 -75.36363636363635
    vertex  -9.510565162951538 -98.54619369261418 -71.54397625113529
    vertex  -9.510565162951536 -84.72653358011313 -71.54397625113529
  endloop
endfacet
facet normal  -16.311896062463187 -50.20285397155686 -131.43277802978338
  outer loop
    vertex  0.0 -91.63636363636365 -75.36363636363635
    vertex  3.632712640026803 -102.8167035238626 -71.54397625113529
    vertex  -9.510565162951538 -98.54619369261418 -71.54397625113529
  endloop
endfacet
facet normal  42.705098312484246 -31.027070086669806 -131.4327780297834
  outer loop
    vertex  0.0 -91.63636363636365 -75.36363636363635
    vertex  11.755705045849465 -91.63636363636365 -71.54397625113529
    vertex  3.632712640026803 -102.8167035238626 -71.54397625113529
  endloop
endfacet
facet normal  69.04910269643807 50.16710962957185 59.77617782438868
  outer loop
    vertex  0.0 74.36363636363635 -64.66181818181816
    vertex  7.927950106534088 74.36363636363635 -73.81961081764914
    vertex  2.4498713134757084 81.90356497331845 -73.81961081764914
  endloop
endfacet
facet normal  -26.37441033735729 81.17208849798939 59.77617782438869
  outer loop
    vertex  0.0 74.36363636363635 -64.66181818181816
    vertex  2.4498713134757084 81.90356497331845 -73.81961081764914
    vertex  -6.413846366742751 79.02356851716763 -73.81961081764914
  endloop
endfacet
facet normal  -85.34938471816143 7.105427357601002e-15 59.776177824388654
  outer loop
    vertex  0.0 74.36363636363635 -64.66181818181816
    vertex  -6.413846366742751 79.02356851716763 -73.81961081764914
    vertex  -6.413846366742752 69.70370421010507 -73.81961081764914
  endloop
endfacet
facet normal  -26.374410337357418 -81.17208849798939 59.77617782438865
  outer loop
    vertex  0.0 74.36363636363635 -64.66181818181816
    vertex  -6.413846366742752 69.70370421010507 -73.81961081764914
    vertex  2.4498713134757066 66.82370775395424 -73.81961081764914
  endloop
endfacet
facet normal  69.04910269643807 -50.16710962957186 59.77617782438868
  outer loop
    vertex  0.0 74.36363636363635 -64.66181818181816
    vertex  2.4498713134757066 66.82370775395424 -73.81961081764914
    vertex  7.927950106534088 74.36363636363635 -73.81961081764914
  endloop
endfacet
facet normal  61.775779217248115 44.882730802000445 25.725136570549793
  outer loop
    vertex  10.503249289772723 74.36363636363635 -80.00387784090907
    vertex  3.2456825266963687 84.35282004294714 -80.00387784090907
    vertex  2.4498713134757084 81.90356497331845 -73.81961081764914
  endloop
endfacet
facet normal  -23.59624797947938 72.62178394554856 25.725136570549786
  outer loop
    vertex  3.2456825266963687 84.35282004294714 -80.00387784090907
    vertex  -8.49730717158273 80.53729139731615 -80.00387784090907
    vertex  -6.413846366742751 79.02356851716763 -73.81961081764914
  endloop
endfacet
facet normal  -76.35906247553739 0.0 25.72513657054979
  outer loop
    vertex  -8.49730717158273 80.53729139731615 -80.00387784090907
    vertex  -8.49730717158273 68.18998132995655 -80.00387784090907
    vertex  -6.413846366742752 69.70370421010507 -73.81961081764914
  endloop
endfacet
facet normal  -23.596247979479465 -72.62178394554854 25.72513657054978
  outer loop
    vertex  -8.49730717158273 68.18998132995655 -80.00387784090907
    vertex  3.245682526696366 64.37445268432555 -80.00387784090907
    vertex  2.4498713134757066 66.82370775395424 -73.81961081764914
  endloop
endfacet
facet normal  61.775779217248115 -44.88273080200047 25.7251365705498
  outer loop
    vertex  3.245682526696366 64.37445268432555 -80.00387784090907
    vertex  10.503249289772723 74.36363636363635 -80.00387784090907
    vertex  7.927950106534088 74.36363636363635 -73.81961081764914
  endloop
endfacet
facet normal  46.62893185859118 33.87790203073052 19.41757199019195
  outer loop
    vertex  10.503249289772723 74.36363636363635 -80.00387784090907
    vertex  2.4498713134757084 81.90356497331845 -73.81961081764914
    vertex  7.927950106534088 74.36363636363635 -73.81961081764914
  endloop
endfacet
facet normal  -17.810667110878995 54.81559695326107 19.417571990191938
  outer loop
    vertex  3.2456825266963687 84.35282004294714 -80.00387784090907
    vertex  -6.413846366742751 79.02356851716763 -73.81961081764914
    vertex  2.4498713134757084 81.90356497331845 -73.81961081764914
  endloop
endfacet
facet normal  -57.636529495424284 5.329070518200751e-15 19.417571990191945
  outer loop
    vertex  -8.49730717158273 80.53729139731615 -80.00387784090907
    vertex  -6.413846366742752 69.70370421010507 -73.81961081764914
    vertex  -6.413846366742751 79.02356851716763 -73.81961081764914
  endloop
endfacet
facet normal  -17.81066711087908 -54.815596953261064 19.417571990191952
  outer loop
    vertex  -8.49730717158273 68.18998132995655 -80.00387784090907
    vertex  2.4498713134757066 66.82370775395424 -73.81961081764914
    vertex  -6.413846366742752 69.70370421010507 -73.81961081764914
  endloop
endfacet
facet normal  46.62893185859119 -33.87790203073053 19.41757199019194
  outer loop
    vertex  3.245682526696366 64.37445268432555 -80.00387784090907
    vertex  7.927950106534088 74.36363636363635 -73.81961081764914
    vertex  2.4498713134757066 66.82370775395424 -73.81961081764914
  endloop
endfacet
facet normal  29.14764552674684 21.177004066406788 -19.046894277885556
  outer loop
    vertex  7.999800692471587 74.36363636363635 -83.83492931019174
    vertex  2.472074365586193 81.97189894127393 -83.83492931019174
    vertex  3.2456825266963687 84.35282004294714 -80.00387784090907
  endloop
endfacet
facet normal  -11.133409899183464 34.26511235934091 -19.046894277885603
  outer loop
    vertex  2.472074365586193 81.97189894127393 -83.83492931019174
    vertex  -6.471974711821986 79.06580123195026 -83.83492931019174
    vertex  -8.49730717158273 80.53729139731615 -80.00387784090907
  endloop
endfacet
facet normal  -36.02847125512675 3.4026572397773247e-15 -19.04689427788554
  outer loop
    vertex  -6.471974711821986 79.06580123195026 -83.83492931019174
    vertex  -6.471974711821987 69.66147149532243 -83.83492931019174
    vertex  -8.49730717158273 68.18998132995655 -80.00387784090907
  endloop
endfacet
facet normal  -11.133409899183464 -34.265112359340904 -19.04689427788555
  outer loop
    vertex  -6.471974711821987 69.66147149532243 -83.83492931019174
    vertex  2.472074365586191 66.75537378599876 -83.83492931019174
    vertex  3.245682526696366 64.37445268432555 -80.00387784090907
  endloop
endfacet
facet normal  29.14764552674684 -21.177004066406795 -19.046894277885542
  outer loop
    vertex  2.472074365586191 66.75537378599876 -83.83492931019174
    vertex  7.999800692471587 74.36363636363635 -83.83492931019174
    vertex  10.503249289772723 74.36363636363635 -80.00387784090907
  endloop
endfacet
facet normal  38.2690768115581 27.80411181110074 -25.007407870154022
  outer loop
    vertex  7.999800692471587 74.36363636363635 -83.83492931019174
    vertex  3.2456825266963687 84.35282004294714 -80.00387784090907
    vertex  10.503249289772723 74.36363636363635 -80.00387784090907
  endloop
endfacet
facet normal  -14.617486623934724 44.9879979373634 -25.00740787015403
  outer loop
    vertex  2.472074365586193 81.97189894127393 -83.83492931019174
    vertex  -8.49730717158273 80.53729139731615 -80.00387784090907
    vertex  3.2456825266963687 84.35282004294714 -80.00387784090907
  endloop
endfacet
facet normal  -47.303180375246704 0.0 -25.00740787015402
  outer loop
    vertex  -6.471974711821986 79.06580123195026 -83.83492931019174
    vertex  -8.49730717158273 68.18998132995655 -80.00387784090907
    vertex  -8.49730717158273 80.53729139731615 -80.00387784090907
  endloop
endfacet
facet normal  -14.61748662393478 -44.98799793736339 -25.007407870153934
  outer loop
    vertex  -6.471974711821987 69.66147149532243 -83.83492931019174
    vertex  3.245682526696366 64.37445268432555 -80.00387784090907
    vertex  -8.49730717158273 68.18998132995655 -80.00387784090907
  endloop
endfacet
facet normal  38.2690768115581 -27.804111811100746 -25.007407870154026
  outer loop
    vertex  2.472074365586191 66.75537378599876 -83.83492931019174
    vertex  10.503249289772723 74.36363636363635 -80.00387784090907
    vertex  3.245682526696366 64.37445268432555 -80.00387784090907
  endloop
endfacet
facet normal  16.970421675926158 12.329733065744357 -60.864584237090845
  outer loop
    vertex  0.0 74.36363636363635 -86.06545454545453
    vertex  2.472074365586193 81.97189894127393 -83.83492931019174
    vertex  7.999800692471587 74.36363636363635 -83.83492931019174
  endloop
endfacet
facet normal  -6.482124276785843 19.949927172587806 -60.86458423709084
  outer loop
    vertex  0.0 74.36363636363635 -86.06545454545453
    vertex  -6.471974711821986 79.06580123195026 -83.83492931019174
    vertex  2.472074365586193 81.97189894127393 -83.83492931019174
  endloop
endfacet
facet normal  -20.97659479828063 3.552713678800501e-15 -60.86458423709084
  outer loop
    vertex  0.0 74.36363636363635 -86.06545454545453
    vertex  -6.471974711821987 69.66147149532243 -83.83492931019174
    vertex  -6.471974711821986 79.06580123195026 -83.83492931019174
  endloop
endfacet
facet normal  -6.482124276785843 -19.949927172587806 -60.86458423709084
  outer loop
    vertex  0.0 74.36363636363635 -86.06545454545453
    vertex  2.472074365586191 66.75537378599876 -83.83492931019174
    vertex  -6.471974711821987 69.66147149532243 -83.83492931019174
  endloop
endfacet
facet normal  16.970421675926158 -12.32973306574436 -60.864584237090845
  outer loop
    vertex  0.0 74.36363636363635 -86.06545454545453
    vertex  7.999800692471587 74.36363636363635 -83.83492931019174
    vertex  2.472074365586191 66.75537378599876 -83.83492931019174
  endloop
endfacet
endsolid hnX.stl
